<!--?xml version="1.0" encoding="utf-8"?-->
<!-- Generator: Adobe Illustrator 19.2.1, SVG Export Plug-In . SVG Version: 6.00 Build 0)  -->
<svg version="1.1" id="Шар_1" xmlns="http://www.w3.org/2000/svg" xmlns:xlink="http://www.w3.org/1999/xlink" x="0px" y="0px" viewBox="0 0 1670.9 301.5" style="" xml:space="preserve">
<style type="text/css">
	.st0{fill:none;stroke:#FF3D00;stroke-width:2;stroke-linecap:round;stroke-linejoin:round;stroke-miterlimit:10;}
	.st1{fill:none;stroke:#FF3D00;stroke-width:2;stroke-miterlimit:10;}
	.st2{fill:none;stroke:#FF3D00;stroke-linecap:round;stroke-miterlimit:10;}
	.st3{fill:none;stroke:#FF3D00;stroke-linecap:round;stroke-linejoin:round;stroke-miterlimit:10;}
	.st4{fill:none;stroke:#FF3D00;stroke-width:0.5;stroke-linecap:round;stroke-linejoin:round;stroke-miterlimit:10;}
	.st5{fill:none;stroke:#FF3D00;stroke-miterlimit:10;}
</style>
<g id="гори__x28_контур">
	<path class="st0 tqgCCwAP_0" d="M94.3,193.9L191.6,128.4L203.5,140.3L213.1,136.7L267.9,180.8L267.9,193.9L282.2,186.8L292.9,186.8L
		318.6,212.4"></path>
	<path class="st1 tqgCCwAP_1" d="M1067,151.3L1160.4,101.5L1171.9,110.5L1181,107.8L1233.7,141.4L1237.4,148.5L1247.4,145.9L
		1257.7,150.6L1266.3,155.8"></path>
	<path class="st0 tqgCCwAP_2" d="M312,183.2L367.2,153.4L386.3,168.3L397.1,158.5L422.8,170.4L468.4,183.2L490.6,190.3L515.4,178.4L
		525.1,187.4L538.8,184.4L600.1,199.9L618.3,199.9L645.7,205.8L667.9,212.4L707,212.4L741.8,203.5"></path>
	<path class="st0 tqgCCwAP_3" d="M757.8,196L794.7,172.1L806.5,164.4L816.9,172.1L833.9,151.8L845.7,159.5L849.4,159.5L887.8,185.9"></path>
	<path class="st0 tqgCCwAP_4" d="M882,198.9L915.8,185.9L929.4,175.7L954.6,157L983.3,128.4L1023.6,151.2L1051.7,157L1057.1,167.7L
		1067.2,163.7L1098.3,175.7L1161.4,198.9"></path>
</g>
<g id="деталі_гори">
	<path id="_x31_" class="st2 tqgCCwAP_5" d="M90.9,200.9L167.9,148.8"></path>
	<path id="_x32_" class="st3 tqgCCwAP_6" d="M134,175.8L189.6,136.8L192,135.5L195.5,139"></path>
	<path id="_x33__2_" class="st2 tqgCCwAP_7" d="M108.9,203L96.5,210.8L83.3,223.4"></path>
	<path id="_x34__2_" class="st4 tqgCCwAP_8" d="M171.2,161.9L139.2,185.7L119.8,195.7L113.8,204.3L99.1,212.4L94.3,224.4"></path>
	<path id="_x35__2_" class="st2 tqgCCwAP_9" d="M123.2,195.7L132.7,191.1L140.2,188.1L145.9,183.9"></path>
	<path id="_x36__2_" class="st2 tqgCCwAP_10" d="M151.8,179.9L179.1,158.8"></path>
	<path id="_x37__2_" class="st4 tqgCCwAP_11" d="M216.7,147.9L261.7,182.4L261.7,192.9"></path>
	<path id="_x38__1_" class="st3 tqgCCwAP_12" d="M241.4,170.4L256.4,182.1L258.4,183.9"></path>
	<path id="_x39__1_" class="st4 tqgCCwAP_13" d="M249.9,181.6L258.4,188.1"></path>
	<path id="_x31_0_1_" class="st3 tqgCCwAP_14" d="M276.2,194.4L283,191.1L291,191.1L302.3,201.8"></path>
	<path id="_x31_1" class="st4 tqgCCwAP_15" d="M291.9,195.7L318.5,220.5L322.4,224.4L330.3,222.3L341,218.5L342.9,214.9L348.3,214.1L
		355.7,211.8"></path>
	<path id="_x31_2" class="st3 tqgCCwAP_16" d="M316,223.3L321.5,228.9L341.5,223.3L344.5,218.9L364.5,212.4"></path>
	<path id="_x31_3" class="st4 tqgCCwAP_17" d="M315.3,192L342.9,175.8"></path>
	<path id="_x31_4" class="st3 tqgCCwAP_18" d="M323.3,181.6L367.2,157.8L377,165.5"></path>
	<path id="_x31_5" class="st4 tqgCCwAP_19" d="M362.4,164.1L367.2,161.1L389.6,180L394.5,175.5L397.8,171.9"></path>
	<path id="_x31_6" class="st4 tqgCCwAP_20" d="M391.4,170.6L397.8,163.9L419.1,173.1L436.1,178.4"></path>
	<path id="_x31_7" class="st3 tqgCCwAP_21" d="M401.1,170.4L402.6,167.9L416.5,173.5"></path>
	<path id="_x31_8" class="st4 tqgCCwAP_22" d="M439.3,180L458.2,184.8"></path>
	<path id="_x31_9" class="st4 tqgCCwAP_23" d="M463.7,186.4L498.6,197.7"></path>
	<path id="_x32_0" class="st3 tqgCCwAP_24" d="M439.3,184.8L461.7,190.1L482.8,200.7L512.5,201.8"></path>
	<path id="_x32_1" class="st4 tqgCCwAP_25" d="M501.9,191.1L514.5,183.9L517,186.4"></path>
	<path id="_x32_2" class="st3 tqgCCwAP_26" d="M526.9,192L538.5,188.1L599.2,204.6L607.5,204.6"></path>
	<path id="_x32_3" class="st3 tqgCCwAP_27" d="M622.2,204.6L666.2,216.9L675.9,216.9"></path>
	<path id="_x32_4" class="st4 tqgCCwAP_28" d="M543.2,195.7L609.2,212.4L613.5,212.4L642.5,224.4"></path>
	<path id="_x32_5" class="st3 tqgCCwAP_29" d="M622.2,218.9L649,230.6"></path>
	<path id="_x32_6" class="st4 tqgCCwAP_30" d="M690.9,216.9L705,216.9"></path>
	<path id="_x32_7" class="st4 tqgCCwAP_31" d="M713.5,216.9L764.5,198.9"></path>
	<path id="_x32_8" class="st4 tqgCCwAP_32" d="M768.5,197.7L782.2,187.5"></path>
	<path id="_x32_9" class="st3 tqgCCwAP_33" d="M788.9,182.9L806.7,170.6L819.6,180L827.2,167.9"></path>
	<path id="_x33_0" class="st3 tqgCCwAP_34" d="M757.8,227.6L725.9,238.1L715.9,238.1"></path>
	<path id="_x33_1" class="st4 tqgCCwAP_35" d="M810.2,183.9L806.7,182.4L803.9,187.5L801,184.7L768.5,220.3L741.8,227.6"></path>
	<path id="_x33_2" class="st3 tqgCCwAP_36" d="M798.5,192.6L779.9,212.4"></path>
	<path id="_x33_3" class="st3 tqgCCwAP_37" d="M849.8,167.9L887.8,188.1"></path>
	<path id="_x33_4" class="st4 tqgCCwAP_38" d="M860.9,177.3L887.8,192"></path>
	<path id="_x33_5" class="st3 tqgCCwAP_39" d="M871.9,206.4L912.4,192.6L946.9,167.9L965.9,155.9"></path>
	<path id="_x33_6" class="st4 tqgCCwAP_40" d="M933.4,182.9L977.5,151.8"></path>
	<path id="_x33_7" class="st4 tqgCCwAP_41" d="M975.1,146.6L983.4,134.4L1021.7,155.8L1045.9,158.8L1055.4,173.9"></path>
	<path id="_x33_8" class="st4 tqgCCwAP_42" d="M1067,173.9L1071.9,170.4L1127.4,191.5"></path>
	<path id="_x33_9" class="st3 tqgCCwAP_43" d="M1009.9,154.2L1021.7,163.6L1037.4,163.6L1080.9,202.5"></path>
	<path id="_x34_0" class="st3 tqgCCwAP_44" d="M1080.9,195.7L1097.2,213.4L1123.4,222.4"></path>
	<path id="_x34_1" class="st3 tqgCCwAP_45" d="M1107.9,188.1L1147,202.5"></path>
	<path id="_x34_2" class="st4 tqgCCwAP_46" d="M1153.9,202.4L1175.4,210.1"></path>
	<path id="_x34_3" class="st3 tqgCCwAP_47" d="M1077.5,150.7L1159,107.5L1170.6,119.2L1181.8,114.9L1196.5,124.8"></path>
	<path id="_x34_4" class="st4 tqgCCwAP_48" d="M1200.8,127.3L1222,139.5"></path>
	<path id="_x34_5" class="st3 tqgCCwAP_49" d="M1158.9,121.8L1141.5,139.7L1141.5,137L1127.4,146.6L1112.5,154.2L1093.2,158.8"></path>
	<path id="_x34_6" class="st4 tqgCCwAP_50" d="M1107.9,162.3L1084.9,163.6"></path>
	<path id="_x34_7" class="st4 tqgCCwAP_51" d="M1137,143.4L1126,151.8L1114.2,159.6"></path>
	<path id="_x34_8" class="st3 tqgCCwAP_52" d="M1182.1,121.8L1229.2,152.3"></path>
	<path id="_x34_9" class="st4 tqgCCwAP_53" d="M1213.3,146.6L1234.8,161.7"></path>
	<path id="_x35_0" class="st4 tqgCCwAP_54" d="M1107.9,139.7L1152.8,114.9"></path>
	<path id="_x35_1" class="st3 tqgCCwAP_55" d="M1251.6,154.2L1278.6,170.4"></path>
</g>
<g id="сонце">
	<path id="_x31__1_" class="st0 tqgCCwAP_56" d="M260.1,155.3c0,0,15.5-16.7,37.4-13.2s31.2,26.3,31.2,26.3"></path>
	<path id="_x32__1_" class="st3 tqgCCwAP_57" d="M267.7,154.6c5.6-4.3,12.4-7.4,19.5-7.7c4.4-0.2,11.1,0.5,14.8,3.1"></path>
	<path id="_x33__1_" class="st3 tqgCCwAP_58" d="M312.4,155.8c0,0,5.7,3.8,8.7,10.2"></path>
	<path id="_x34__1_" class="st4 tqgCCwAP_59" d="M291.9,150.7c8.4,1.2,15.8,6.3,21.8,12.2"></path>
	<path id="_x35__1_" class="st3 tqgCCwAP_60" d="M245.3,138.4L253.9,145.6"></path>
	<path id="_x36__1_" class="st0 tqgCCwAP_61" d="M265.1,123.7L270.2,135.9"></path>
	<path id="_x37__1_" class="st4 tqgCCwAP_62" d="M286.7,113.9L288,132.5"></path>
	<path id="_x38_" class="st0 tqgCCwAP_63" d="M307.9,135.6L312.4,124"></path>
	<path id="_x39_" class="st3 tqgCCwAP_64" d="M321.1,145.6L335.5,132.7"></path>
	<path id="_x31_0" class="st4 tqgCCwAP_65" d="M330.2,155.8L340.4,153.5"></path>
</g>
<g id="хмаринка_1">
	<path id="_x31__2_" class="st3 tqgCCwAP_66" d="M152.6,136.2c-1.9,3.4-1,8.3,3.4,8.7c2.4,0.2,5.6-0.6,6.8-2.9"></path>
	<path id="_x32__2_" class="st3 tqgCCwAP_67" d="M145.9,127.1c-4.9-1.9-10.4-3-15.6-1.5c-4.3,1.3-10.1,5.2-8.5,10.4c3.3,10.9,19.3,10.6,28,9.4"></path>
	<path id="_x33_" class="st3 tqgCCwAP_68" d="M143,117c-4.1-0.1-8.1,4-8.1,4"></path>
	<path id="_x34_" class="st3 tqgCCwAP_69" d="M152.7,121.7c0,0-1.8-5.2-6.9-5.2c0,0,1.5-1.1,3.3-2.5s4.5-1.8,4.5-1.8"></path>
	<path id="_x35_" class="st3 tqgCCwAP_70" d="M221.3,113.4c0,0,2.7,0,2.7-4c0-4-5.3-6.3-5.4-6.3c-0.1,0,0.2-4.7,0.1-5.2
		c-0.3-2.5-1.4-4.8-3.1-6.6c-2.3-2.3-5.4-3.5-8.6-4.2c-6.1-1.4-13.3-3.3-19.4-0.7c-6.3,2.7-4,9.2-11.4,9.2
		c-6.3,0-23.4,7.1-20.7,15.4c1.1,3.5,5.3,5.3,6.7,8.7"></path>
	<path id="_x36_" class="st3 tqgCCwAP_71" d="M226.9,111.4c0,0,11-3.1,14.6,2.5c3.6,5.6,7.9,12.2,3.6,15.5c-4.3,3.3-5.7,7.4-12.2,9.4
		c-6.6,2-7.9,1.3-7.9,1.3"></path>
	<path id="_x37_" class="st3 tqgCCwAP_72" d="M180.9,108.3c1.5-3.5,5-4.4,7.6-5c4.2-1,7.2,0.1,10.5,2.6c1.5,1.1,3.4,2.6,3.4,4.6
		c0,3.2-1.3,4.5-1.3,4.5s0.9-1.6,3.7-1.6c2.2,0,4.8,0.9,5.4,3.2c0.3,1,0.3,2.1,0.7,3"></path>
	<path id="_x38__2_" class="st3 tqgCCwAP_73" d="M128,133.4c-1.1,2.2,0.3,4,2.1,5.3c1.2,0.8,2.6,1.3,4,1.7c2.5,0.6,5.3,1,7.8,0.5"></path>
	<path id="_x39__2_" class="st4 tqgCCwAP_74" d="M143,143.3c0,0,3.2,0.3,3.9-0.4"></path>
	<path id="_x31_0_2_" class="st4 tqgCCwAP_75" d="M128.4,140.9c3.5,1.9,7.3,2.9,11.2,2.2"></path>
	<path id="_x31_1_1_" class="st4 tqgCCwAP_76" d="M135.6,126.9c-2.6-0.3-5.7,0.6-7.9,1.9c-3.3,2-5,7.5-2,10.6"></path>
	<path id="_x31_2_1_" class="st4 tqgCCwAP_77" d="M178.5,99.4c-2-0.9-4.2-0.6-6.3,0c-4.1,1-11,3.4-12.7,7.7c-1.3,3.4,1.4,7.5,3.9,9.6
		c2.8,2.2,6.4,3,9.8,1.9"></path>
	<path id="_x31_3_1_" class="st3 tqgCCwAP_78" d="M182.1,97.9l1.4-1.9c0,0,1.3-3.5,3-5.3s5.8-3.1,7.5-3.1s6.9,0.3,9.6,1.8"></path>
	<path id="_x31_4_1_" class="st4 tqgCCwAP_79" d="M182.1,112.3c0.5-2.3,1.7-4.4,3.8-5.5c3.4-1.8,12.9-1.8,12.9,3.8"></path>
	<path id="_x31_5_1_" class="st4 tqgCCwAP_80" d="M214.3,104c2.3,0.6,4.7,1.3,6,3.5c1.4,2.3,0.6,6.6-2.6,7"></path>
	<path id="_x31_6_1_" class="st4 tqgCCwAP_81" d="M238.1,115.6c4.8,3.8,6.2,6,3.3,12.2c-2.2,4.6-9.9,8.3-14.4,8.3"></path>
</g>
<g id="хмарка_2">
	<path id="_x31__3_" class="st3 tqgCCwAP_82" d="M759.7,141.6c0,0-3.3-1.8-8.4,1c-5.2,2.8-6.7,10.1-6.7,10.1s-5.4-3-8.3,0c-3,3-2.8,7.9-2.8,7.9
		s-4.4-2.4-6.8,0s-4.2-2.2-6.4,0s-17.9,2.8-19.9,4.8c-2,2,11.5,1.2,17.1,2.8c5.6,1.6,4.4,1.6,10.3,1.6s6.8,7.5,13.5,7.5
		c6.8,0,12.9,0.2,15.5-2.4s2.6-7.9,2.6-7.9s1.2,2.8,7.5,0c6.3-2.8,5.8-8.2,5.8-8.2s0.2-0.6,5.1,1.8s10.8,4,14.4,4"></path>
	<path id="_x32__3_" class="st4 tqgCCwAP_83" d="M762.8,148.7c0,0-3.7-1-1.7-6.2c2-5.2,7.6-2.2,7.6-2.2"></path>
	<path id="_x33__3_" class="st3 tqgCCwAP_84" d="M792.9,118.9c-2.9-6.3-10.3-6.6-16.1-4c-3.6,1.6-7,4.6-8.2,8.3c-1,2.8-2.3,6.4-1.1,9.4
		c1.8,4.4,2.6,7.4,7.5,9"></path>
	<path id="_x34__3_" class="st3 tqgCCwAP_85" d="M810.9,144.1c8.4-4.9,11.7-17.3,5.4-25.1c-2.4-3-6.1-4.9-9.9-5.5c-4.5-0.6-8.5,1.1-12.6,2.8"></path>
	<path id="_x35__3_" class="st3 tqgCCwAP_86" d="M824,134.2c0,0,24.8-22.7,43.5-2c8.6,9.5-3.6,7.3-1.6,10.8c2.9,4.9,11.2,3.6,9.4,9.7
		c-0.6,2-6.9,6.4-16.1,7"></path>
	<path id="_x36__3_" class="st4 tqgCCwAP_87" d="M819.5,138.8c0,0,6.6-1.5,8.9,4.6"></path>
	<path id="_x37__3_" class="st3 tqgCCwAP_88" d="M824,141.6c0,0,3.2,1.1,3.2,3.1s1.3,3.6,1.3,3.6"></path>
	<path id="_x38__3_" class="st3 tqgCCwAP_89" d="M712.7,165.2c1.5,0.2,3,0.3,4.4,0.6c1.7,0.4,3.2,1.2,4.9,1.6c3,0.8,6.2,0.4,9.3,0.4"></path>
	<path id="_x39__3_" class="st4 tqgCCwAP_90" d="M735.1,160.2c0,1,0,1.9,0,2.9c-2-0.1-4-0.6-5.8-1.5"></path>
	<path id="_x31_0_3_" class="st4 tqgCCwAP_91" d="M750.6,145.7c-1.1,0.5-1.9,1.4-2.5,2.5c-0.9,1.6-2.2,4.2-2.2,6c0,1.2-2.1,0.5-2.7,0.3
		c-2.8-0.8-5.6-0.3-7.1,2.6"></path>
	<path id="_x31_1_2_" class="st4 tqgCCwAP_92" d="M747.6,173.9c2.1,1.5,5.3,0.5,7.3-0.7c3.5-2,2.9-5.5,2.9-9c0,0.7,4.7,1.2,5.3,1.1"></path>
	<path id="_x31_2_2_" class="st4 tqgCCwAP_93" d="M772.1,135.8c-1.7-1.7-2.3-4.4-2-6.9c0.6-4.7,3.3-9.7,7.8-11.8c2.3-1.1,7.4-2.3,9.5-0.2"></path>
	<path id="_x31_3_2_" class="st3 tqgCCwAP_94" d="M776,121.7c1.6-2.3,4.4-3.4,7.1-3.3c3.3,0.1,5.3,2.1,7.5,4.2"></path>
	<path id="_x31_4_2_" class="st4 tqgCCwAP_95" d="M776,156.6c2.6,2.7,6.8,3.6,10.2,4.6c5.4,1.6,12.7,3.2,17.3-1.1"></path>
	<path id="_x31_5_2_" class="st4 tqgCCwAP_96" d="M811,120.2c8.6,3.4,6.5,18.2-0.4,22.1c-2.2,1.3-4.7,1.9-6.8,3.3"></path>
	<path id="_x31_5_3_" class="st3 tqgCCwAP_97" d="M847.5,128.5c-6.9-0.8-12.9,2.8-19,5.4"></path>
	<path id="_x31_6_2_" class="st4 tqgCCwAP_98" d="M844.1,126.6c2.7-0.9,5.6-1,8.4-0.5c2.3,0.4,5.8,1.2,7.5,2.9"></path>
	<path id="_x31_7_1_" class="st4 tqgCCwAP_99" d="M863.3,132.1c0.8,0.5,1.7,1,2.3,1.7c0.7,0.8,2.9,3.5,1.8,4.5c-0.3,0.2-0.7,0.3-1,0.4
		c-1.4,0.4-3,0.8-3.4,2.4c-0.2,0.8-0.1,1.7,0.4,2.3"></path>
	<path id="_x31_8_1_" class="st4 tqgCCwAP_100" d="M849.1,155.4c5.7,1.7,12.5,4.9,17.3-0.4"></path>
</g>
<g id="хмаринка_3">
	<path id="_x31__4_" class="st0 tqgCCwAP_101" d="M1209.6,268.2c-7-5.9-18.5-5.9-27.1-5.6c-10.1,0.3-20.1,2.6-29.3,6.6c-2.6,1.1-5.3,2.5-6.9,4.9
		c-7.3,10.8,11.3,15.9,18.2,16.8"></path>
	<path id="_x32__4_" class="st0 tqgCCwAP_102" d="M1212.3,280.5c0,0-1.9-18.7,17.5-23.3c0,0,9.1,3,14.4,1.1c5.4-1.9,13.4-2.6,13.4-2.6"></path>
	<path id="_x33__4_" class="st0 tqgCCwAP_103" d="M1456.6,253.8c0,0,8,0,8-5.8c0-5.8-16-8.9-16.1-9c-0.3-0.1,0.5-6.7,0.3-7.5
		c-0.9-3.5-4-6.8-9.3-9.4c-6.8-3.3-16.3-5-25.7-6c-18.3-2-39.9-4.7-57.9-1.1c-18.9,3.8-11.9,13.2-34,13.2c-18.8,0-70,10.1-62,21.9
		c3.4,5,15.8,7.6,20.1,12.4"></path>
	<path id="_x34__4_" class="st0 tqgCCwAP_104" d="M1473.6,250.9c20.3-2.6,41.7-1.9,56.6,14.2c1,1.1,2.1,2.4,2.6,3.8c0.9,2.6-0.3,5.1-2.6,6.5
		c-3.3,2-6.9,3.6-10.6,4.6"></path>
	<path id="_x35__4_" class="st0 tqgCCwAP_105" d="M1381.6,258.7c13.5-2.8,19-10.1,31.5-2.9s8.3,13.9,8.3,13.9s7.3-7.5,13-3.8s8.3,10.8,8.3,10.8"></path>
	<path id="_x36__4_" class="st4 tqgCCwAP_106" d="M1153.9,278.2c0,3.4,3,5.5,5.3,6.6c2.8,1.3,7.7,1.7,10.4,3.2"></path>
	<path id="_x37__4_" class="st3 tqgCCwAP_107" d="M1191.9,268.2c-10.2-0.8-22.3-0.1-31.5,4.8"></path>
	<path id="_x38__4_" class="st4 tqgCCwAP_108" d="M1243.6,264.9c-4.4-1.7-9.3-3.3-14-2.8c-2.9,0.3-5.7,1.5-7.6,3.7c-2.2,2.7-2.6,6.5-4.4,9.6"></path>
	<path id="_x39__4_" class="st3 tqgCCwAP_109" d="M1326.5,236.3c-11.5-2.8-47.5,1.8-56.4,8.9c-5.7,4.5,3.9,8.4,10,11.8c8.1,4.6,8.6,7.4,19.3,5.7"></path>
	<path id="_x31_0_4_" class="st4 tqgCCwAP_110" d="M1340.4,235.9c-7.5,8.2-12.2,4.2-14.8,3.8c-10.2-1.4-21.7-1.8-31.3,1.5"></path>
	<path id="_x31_1_3_" class="st3 tqgCCwAP_111" d="M1369.1,221.3c-7.5-0.3-13.4,1.4-19.3,4.1c-5.7,2.6-9.9,7.2-14.7,11.2"></path>
	<path id="_x31_2_3_" class="st3 tqgCCwAP_112" d="M1366.4,217.9c16.6,0,34,1.9,50.6,3.4c5.1,0.5,9.9,1.2,14.9,2.5c2.5,0.7,4.9,1.6,6.9,3.3
		c2.9,2.6,3.2,5.8,2.8,9.4c-0.1,1.4-1.1,6.6,1.1,6.9c3.5,0.6,7-0.1,10.1,2.1"></path>
	<path id="_x31_3_3_" class="st4 tqgCCwAP_113" d="M1373.9,264.9c5-1.8,10-3.3,15-5.2c4.5-1.6,9.9-4.1,14.8-3.9c4.6,0.2,7.7,4.2,11,6.9"></path>
	<path id="_x31_4_3_" class="st3 tqgCCwAP_114" d="M1456.4,259.5c4.6-1.2,8.7-2.1,10.9-6.8"></path>
	<path id="_x31_5_4_" class="st4 tqgCCwAP_115" d="M1512.4,262.5c3.5,0.5,7,1.7,10.1,3.5c8.7,5.2-7.1,11.2-11.1,12.4c-9.7,3-19.8,4-29.8,5.1"></path>
</g>
<g id="дорога">
	<path class="st1 tqgCCwAP_116" d="M24.7,245.2L1209.6,245.2"></path>
	<path class="st5 tqgCCwAP_117" d="M94.3,252.7L630.7,252.7"></path>
	<path class="st5 tqgCCwAP_118" d="M597.7,262.7L812.3,262.7"></path>
	<path class="st4 tqgCCwAP_119" d="M905.3,270.8L1119.8,270.8"></path>
	<path class="st5 tqgCCwAP_120" d="M842.5,262.7L960.9,262.7"></path>
	<path class="st5 tqgCCwAP_121" d="M977.5,262.7L1015.5,262.7"></path>
</g>
<g id="дим">
	<path class="st0 tqgCCwAP_122" d="M1343,159.6L1313.6,181.6L1319.3,181.6L1281,202.6L1263,210.2"></path>
	<path class="st4 tqgCCwAP_123" d="M1352.1,148.8c-15.8,9-31.8,17.8-46.3,28.9v3.3l-15.1,7.7"></path>
	<path class="st3 tqgCCwAP_124" d="M1281,195.3L1227,217"></path>
</g>
<g id="машинка">
	<path id="_x31__5_" class="st0 tqgCCwAP_125" d="M1345.8,105.5l-5.2-22.3l3.2-4.2l4-5.5l1.3-4.5c0,0-0.3-3.6-0.3-3.6c10-6.4,37.4-14.1,47.8-19.9
		c22.3-12.3,28.9-22.8,53.6-30c16.6-4.8,34.2-7,51.5-5.3c16.7,1.7,32.9,6.3,49.3,9.7"></path>
	<path id="_x32__5_" class="st0 tqgCCwAP_126" d="M1559.1,20.4c27-3.2,35.6-4.9,62.8-4.3c2.1,0,16.6-0.1,17.3,1.9c0.3,1,6.6,2.7,6.4,3.7
		c-0.7,3.9,0.6,8.2,3.5,11c1.6,1.6,3.7,2.7,5.4,4.2c12.5,11-18.7,28.1-26.4,33.3"></path>
	<path id="_x33__5_" class="st3 tqgCCwAP_127" d="M1627.3,57c-6.5-14.2-19.5-21.9-33.7-22.9c-13.3-1-26.5,3.7-34.1,14.8"></path>
	<path id="_x34__5_" class="st0 tqgCCwAP_128" d="M1582.3,42.5c7-1.3,14.6-0.5,21.2,1.5c4.1,1.3,8.1,3.1,11.3,6c10.4,9.2,8.4,27,1.7,37.8
		c-7.8,12.5-24.5,14.8-37.5,10.2c-15.3-5.3-23.2-22.5-18.3-37.9c2-6.2,6.5-10.9,12.1-14.1C1575.8,44.3,1579,43.2,1582.3,42.5z"></path>
	<path id="_x35__5_" class="st0 tqgCCwAP_129" d="M1555.7,86.6c-20.1,4.7-61.6,14.5-91.7,20"></path>
	<path id="_x36__5_" class="st0 tqgCCwAP_130" d="M1525.3,49.7l-96.7,12.6c0,0-77.1,87.2-70.9,93.5c3.5,3.5,165.4-93.6,165.4-93.6"></path>
	<path id="_x37__5_" class="st0 tqgCCwAP_131" d="M1365.4,131.9c-2.4-2.3-3.4-4-5-7.2c-5.5-11.2-2.6-27.4,8-34.6c9.1-6.2,22.6-6.9,32.2-1.7"></path>
	<path id="_x38__6_" class="st3 tqgCCwAP_132" d="M1403,83c-4.9-3.7-10.5-5.1-20.5-4.4c-14.8,1.1-34.2,12.3-28.4,32.8"></path>
	<path id="_x39__5_" class="st0 tqgCCwAP_133" d="M1334.6,93.5c0,0-35.9,19.6-33.4,23.1c2.2,3,37.6-2.7,37.6-2.7"></path>
	<path id="_x31_0_5_" class="st3 tqgCCwAP_134" d="M1638.1,22.8L1630.1,29.3L1642.4,29.3"></path>
	<path id="_x31_1_4_" class="st4 tqgCCwAP_135" d="M1609.8,19.9c6.4,0,13.2-1.5,19.5,0.1c1.6,0.4,3.3,1.7,5,1.4"></path>
	<path id="_x31_2_4_" class="st4 tqgCCwAP_136" d="M1547,23.8c8.6,4.1,18.6,0.7,27.5-0.5c10.6-1.5,21.2-2.3,31.9-3.3"></path>
	<path id="_x31_3_4_" class="st4 tqgCCwAP_137" d="M1600.9,32.1c13.1,4.2,22.3,10.8,30.7,24.2"></path>
	<path id="_x31_4_4_" class="st4 tqgCCwAP_138" d="M1598.2,32.3c-7.6-1.7-15.2-1.3-22.5,1.2"></path>
	<path id="_x31_5_5_" class="st3 tqgCCwAP_139" d="M1520.7,19.4c-12.3-4-33.3-5-46.5-4.2c-18.8,1.2-32.8,9.3-40.7,15"></path>
	<path id="_x31_6_3_" class="st3 tqgCCwAP_140" d="M1405,48.7c5.3,0.7,10.6,1.8,15.9,1.4c6.1-0.4,12.2-1.5,18.3-2.3c19.6-2.6,39.7-5.7,59.5-7.6
		c5.8-0.6,12.7-0.9,18.1-3.5c3.7-1.9,6.7-4.1,10.2-6.5"></path>
	<path id="_x31_7_2_" class="st4 tqgCCwAP_141" d="M1485.7,39c7-0.6,14-0.5,20.9-1.6c5.9-1,14.9-3.4,18.1-9.2c0.9-1.6,0.2-3.1-0.3-4.6"></path>
	<path id="_x31_8_2_" class="st4 tqgCCwAP_142" d="M1467.9,18.2L1470.5,41.3L1476.4,40.2L1472.3,36.3"></path>
	<path id="_x31_9_1_" class="st4 tqgCCwAP_143" d="M1457.4,20.4c-12.5,4.8-23.9,11.7-35.2,18.7l6.3,1.4"></path>
	<path id="_x32_0_1_" class="st3 tqgCCwAP_144" d="M1480.7,99.3L1520.5,90.9L1548.5,84.7L1553.2,83.4"></path>
	<path id="_x32_1_1_" class="st4 tqgCCwAP_145" d="M1504.2,92.4L1531.1,86.2L1550,81.7L1553.2,80.8"></path>
	<path id="_x32_2_1_" class="st0 tqgCCwAP_146" d="M1373.9,67.6c0,0,9.9-5.9,20.2-6.7c10.3-0.8,16.2-1.2,16.2-1.2"></path>
	<path id="_x32_3_1_" class="st3 tqgCCwAP_147" d="M1567.9,53.9c-6.1,8.1-5.3,20.1-1.4,29c5.3,12,21.6,14.8,33.5,13"></path>
	<path id="_x32_4_1_" class="st3 tqgCCwAP_148" d="M1604.9,93.5c5.9-2.3,11.1-8.9,11.4-15.4"></path>
	<path id="_x32_5_1_" class="st4 tqgCCwAP_149" d="M1583.1,57c0,0-7.1,1.5-6.8,5.5c0.3,4,5.5,4.6,5.5,4.6l4.5-3.7"></path>
	<path id="_x32_6_1_" class="st3 tqgCCwAP_150" d="M1582.1,72.5L1582.3,75.2L1576.4,79.2L1573.4,70.5L1576.9,70.2"></path>
	<path id="_x32_7_1_" class="st4 tqgCCwAP_151" d="M1587.4,77.6L1591.4,77.3L1591.9,85.3L1582.8,82.7"></path>
	<path id="_x32_8_1_" class="st3 tqgCCwAP_152" d="M1595.8,76.2L1597.4,72.8L1604.1,76.4L1597.6,84.1"></path>
	<path id="_x32_9_1_" class="st4 tqgCCwAP_153" d="M1597.5,69.4l-1-4.6c0,0-1.3-1.9,2.2-2.2c3.6-0.3,4.6,3,4.8,5.6"></path>
	<path id="_x33_0_1_" class="st3 tqgCCwAP_154" d="M1470.5,79.2L1479.3,80.7L1505.2,64.9"></path>
	<path id="_x33_1_1_" class="st3 tqgCCwAP_155" d="M1418.9,115.9L1448.1,98.6"></path>
	<path id="_x33_2_1_" class="st3 tqgCCwAP_156" d="M1379.2,127.2L1364.9,146.2L1363.6,148.8L1372.8,145.9L1402.9,127.2"></path>
	<path id="_x33_3_1_" class="st4 tqgCCwAP_157" d="M1398.9,105.5L1384.6,121.8"></path>
	<path id="_x33_4_1_" class="st3 tqgCCwAP_158" d="M1429.6,67.6L1408.6,92.6L1402.9,100.3"></path>
	<path id="_x33_5_1_" class="st4 tqgCCwAP_159" d="M1434.9,65.7L1479.6,59.7L1462.4,64.9L1492.9,59.7"></path>
	<path id="_x33_6_1_" class="st4 tqgCCwAP_160" d="M1485.7,72.8L1511.1,59.7"></path>
	<path id="_x33_7_1_" class="st4 tqgCCwAP_161" d="M1409.4,123.7L1423.1,117.3"></path>
	<path id="_x33_8_1_" class="st4 tqgCCwAP_162" d="M1374.1,90.3c5.4-2.8,12.4-2.6,18-0.8"></path>
	<path id="_x33_9_1_" class="st4 tqgCCwAP_163" d="M1369.4,93.7c-8.6,6-10.3,21.5-4.5,30"></path>
	<path id="_x34_0_1_" class="st3 tqgCCwAP_164" d="M1378.9,111.4L1379.1,114.5L1372.6,120.4L1370.3,112.1"></path>
	<path id="_x34_1_1_" class="st4 tqgCCwAP_165" d="M1377,105.6L1380.7,107.3L1384.6,105L1384.1,98.9L1380.3,98.6"></path>
	<path id="_x34_2_1_" class="st4 tqgCCwAP_166" d="M1402.9,45.3L1389.5,51.8L1372.8,58.6L1354.2,65.7L1353,67.6L1353,71.1"></path>
	<path id="_x34_3_1_" class="st4 tqgCCwAP_167" d="M1351,75.3L1344.7,83.3L1346.4,92.6"></path>
	<path id="_x34_4_1_" class="st4 tqgCCwAP_168" d="M1334,96.6L1322.9,102.9"></path>
	<path id="_x34_5_1_" class="st4 tqgCCwAP_169" d="M1318.4,106.6c-4,2.1-9.8,4.2-12.6,7.9c4.4,1,9.7,0.1,14.2,0.1"></path>
</g>
<style>.tqgCCwAP_0{stroke-dasharray:291 293;stroke-dashoffset:292;animation:tqgCCwAP_draw 71ms ease-out 0ms forwards;}.tqgCCwAP_1{stroke-dasharray:233 235;stroke-dashoffset:234;animation:tqgCCwAP_draw 57ms ease-out 71ms forwards;}.tqgCCwAP_2{stroke-dasharray:463 465;stroke-dashoffset:464;animation:tqgCCwAP_draw 113ms ease-out 128ms forwards;}.tqgCCwAP_3{stroke-dasharray:162 164;stroke-dashoffset:163;animation:tqgCCwAP_draw 39ms ease-out 242ms forwards;}.tqgCCwAP_4{stroke-dasharray:324 326;stroke-dashoffset:325;animation:tqgCCwAP_draw 79ms ease-out 282ms forwards;}.tqgCCwAP_5{stroke-dasharray:93 95;stroke-dashoffset:94;animation:tqgCCwAP_draw 22ms ease-out 361ms forwards;}.tqgCCwAP_6{stroke-dasharray:76 78;stroke-dashoffset:77;animation:tqgCCwAP_draw 18ms ease-out 384ms forwards;}.tqgCCwAP_7{stroke-dasharray:33 35;stroke-dashoffset:34;animation:tqgCCwAP_draw 8ms ease-out 403ms forwards;}.tqgCCwAP_8{stroke-dasharray:102 104;stroke-dashoffset:103;animation:tqgCCwAP_draw 25ms ease-out 411ms forwards;}.tqgCCwAP_9{stroke-dasharray:26 28;stroke-dashoffset:27;animation:tqgCCwAP_draw 6ms ease-out 436ms forwards;}.tqgCCwAP_10{stroke-dasharray:35 37;stroke-dashoffset:36;animation:tqgCCwAP_draw 8ms ease-out 443ms forwards;}.tqgCCwAP_11{stroke-dasharray:68 70;stroke-dashoffset:69;animation:tqgCCwAP_draw 16ms ease-out 452ms forwards;}.tqgCCwAP_12{stroke-dasharray:22 24;stroke-dashoffset:23;animation:tqgCCwAP_draw 5ms ease-out 469ms forwards;}.tqgCCwAP_13{stroke-dasharray:11 13;stroke-dashoffset:12;animation:tqgCCwAP_draw 2ms ease-out 474ms forwards;}.tqgCCwAP_14{stroke-dasharray:32 34;stroke-dashoffset:33;animation:tqgCCwAP_draw 8ms ease-out 477ms forwards;}.tqgCCwAP_15{stroke-dasharray:79 81;stroke-dashoffset:80;animation:tqgCCwAP_draw 19ms ease-out 485ms forwards;}.tqgCCwAP_16{stroke-dasharray:55 57;stroke-dashoffset:56;animation:tqgCCwAP_draw 13ms ease-out 505ms forwards;}.tqgCCwAP_17{stroke-dasharray:33 35;stroke-dashoffset:34;animation:tqgCCwAP_draw 8ms ease-out 519ms forwards;}.tqgCCwAP_18{stroke-dasharray:63 65;stroke-dashoffset:64;animation:tqgCCwAP_draw 15ms ease-out 527ms forwards;}.tqgCCwAP_19{stroke-dasharray:47 49;stroke-dashoffset:48;animation:tqgCCwAP_draw 11ms ease-out 543ms forwards;}.tqgCCwAP_20{stroke-dasharray:51 53;stroke-dashoffset:52;animation:tqgCCwAP_draw 12ms ease-out 554ms forwards;}.tqgCCwAP_21{stroke-dasharray:18 20;stroke-dashoffset:19;animation:tqgCCwAP_draw 4ms ease-out 567ms forwards;}.tqgCCwAP_22{stroke-dasharray:20 22;stroke-dashoffset:21;animation:tqgCCwAP_draw 5ms ease-out 572ms forwards;}.tqgCCwAP_23{stroke-dasharray:37 39;stroke-dashoffset:38;animation:tqgCCwAP_draw 9ms ease-out 577ms forwards;}.tqgCCwAP_24{stroke-dasharray:77 79;stroke-dashoffset:78;animation:tqgCCwAP_draw 19ms ease-out 586ms forwards;}.tqgCCwAP_25{stroke-dasharray:19 21;stroke-dashoffset:20;animation:tqgCCwAP_draw 4ms ease-out 605ms forwards;}.tqgCCwAP_26{stroke-dasharray:84 86;stroke-dashoffset:85;animation:tqgCCwAP_draw 20ms ease-out 610ms forwards;}.tqgCCwAP_27{stroke-dasharray:56 58;stroke-dashoffset:57;animation:tqgCCwAP_draw 13ms ease-out 631ms forwards;}.tqgCCwAP_28{stroke-dasharray:104 106;stroke-dashoffset:105;animation:tqgCCwAP_draw 25ms ease-out 645ms forwards;}.tqgCCwAP_29{stroke-dasharray:30 32;stroke-dashoffset:31;animation:tqgCCwAP_draw 7ms ease-out 670ms forwards;}.tqgCCwAP_30{stroke-dasharray:15 17;stroke-dashoffset:16;animation:tqgCCwAP_draw 3ms ease-out 678ms forwards;}.tqgCCwAP_31{stroke-dasharray:55 57;stroke-dashoffset:56;animation:tqgCCwAP_draw 13ms ease-out 682ms forwards;}.tqgCCwAP_32{stroke-dasharray:18 20;stroke-dashoffset:19;animation:tqgCCwAP_draw 4ms ease-out 696ms forwards;}.tqgCCwAP_33{stroke-dasharray:52 54;stroke-dashoffset:53;animation:tqgCCwAP_draw 12ms ease-out 700ms forwards;}.tqgCCwAP_34{stroke-dasharray:44 46;stroke-dashoffset:45;animation:tqgCCwAP_draw 11ms ease-out 713ms forwards;}.tqgCCwAP_35{stroke-dasharray:90 92;stroke-dashoffset:91;animation:tqgCCwAP_draw 22ms ease-out 724ms forwards;}.tqgCCwAP_36{stroke-dasharray:28 30;stroke-dashoffset:29;animation:tqgCCwAP_draw 7ms ease-out 747ms forwards;}.tqgCCwAP_37{stroke-dasharray:44 46;stroke-dashoffset:45;animation:tqgCCwAP_draw 11ms ease-out 754ms forwards;}.tqgCCwAP_38{stroke-dasharray:31 33;stroke-dashoffset:32;animation:tqgCCwAP_draw 7ms ease-out 765ms forwards;}.tqgCCwAP_39{stroke-dasharray:108 110;stroke-dashoffset:109;animation:tqgCCwAP_draw 26ms ease-out 772ms forwards;}.tqgCCwAP_40{stroke-dasharray:54 56;stroke-dashoffset:55;animation:tqgCCwAP_draw 13ms ease-out 799ms forwards;}.tqgCCwAP_41{stroke-dasharray:101 103;stroke-dashoffset:102;animation:tqgCCwAP_draw 24ms ease-out 813ms forwards;}.tqgCCwAP_42{stroke-dasharray:66 68;stroke-dashoffset:67;animation:tqgCCwAP_draw 16ms ease-out 838ms forwards;}.tqgCCwAP_43{stroke-dasharray:90 92;stroke-dashoffset:91;animation:tqgCCwAP_draw 22ms ease-out 854ms forwards;}.tqgCCwAP_44{stroke-dasharray:52 54;stroke-dashoffset:53;animation:tqgCCwAP_draw 12ms ease-out 876ms forwards;}.tqgCCwAP_45{stroke-dasharray:42 44;stroke-dashoffset:43;animation:tqgCCwAP_draw 10ms ease-out 889ms forwards;}.tqgCCwAP_46{stroke-dasharray:23 25;stroke-dashoffset:24;animation:tqgCCwAP_draw 5ms ease-out 900ms forwards;}.tqgCCwAP_47{stroke-dasharray:139 141;stroke-dashoffset:140;animation:tqgCCwAP_draw 34ms ease-out 906ms forwards;}.tqgCCwAP_48{stroke-dasharray:25 27;stroke-dashoffset:26;animation:tqgCCwAP_draw 6ms ease-out 940ms forwards;}.tqgCCwAP_49{stroke-dasharray:82 84;stroke-dashoffset:83;animation:tqgCCwAP_draw 20ms ease-out 946ms forwards;}.tqgCCwAP_50{stroke-dasharray:24 26;stroke-dashoffset:25;animation:tqgCCwAP_draw 6ms ease-out 966ms forwards;}.tqgCCwAP_51{stroke-dasharray:28 30;stroke-dashoffset:29;animation:tqgCCwAP_draw 7ms ease-out 973ms forwards;}.tqgCCwAP_52{stroke-dasharray:57 59;stroke-dashoffset:58;animation:tqgCCwAP_draw 14ms ease-out 980ms forwards;}.tqgCCwAP_53{stroke-dasharray:27 29;stroke-dashoffset:28;animation:tqgCCwAP_draw 6ms ease-out 994ms forwards;}.tqgCCwAP_54{stroke-dasharray:52 54;stroke-dashoffset:53;animation:tqgCCwAP_draw 12ms ease-out 1001ms forwards;}.tqgCCwAP_55{stroke-dasharray:32 34;stroke-dashoffset:33;animation:tqgCCwAP_draw 8ms ease-out 1014ms forwards;}.tqgCCwAP_56{stroke-dasharray:84 86;stroke-dashoffset:85;animation:tqgCCwAP_draw 20ms ease-out 1022ms forwards;}.tqgCCwAP_57{stroke-dasharray:37 39;stroke-dashoffset:38;animation:tqgCCwAP_draw 9ms ease-out 1043ms forwards;}.tqgCCwAP_58{stroke-dasharray:14 16;stroke-dashoffset:15;animation:tqgCCwAP_draw 3ms ease-out 1052ms forwards;}.tqgCCwAP_59{stroke-dasharray:26 28;stroke-dashoffset:27;animation:tqgCCwAP_draw 6ms ease-out 1056ms forwards;}.tqgCCwAP_60{stroke-dasharray:12 14;stroke-dashoffset:13;animation:tqgCCwAP_draw 3ms ease-out 1062ms forwards;}.tqgCCwAP_61{stroke-dasharray:14 16;stroke-dashoffset:15;animation:tqgCCwAP_draw 3ms ease-out 1065ms forwards;}.tqgCCwAP_62{stroke-dasharray:19 21;stroke-dashoffset:20;animation:tqgCCwAP_draw 4ms ease-out 1069ms forwards;}.tqgCCwAP_63{stroke-dasharray:13 15;stroke-dashoffset:14;animation:tqgCCwAP_draw 3ms ease-out 1074ms forwards;}.tqgCCwAP_64{stroke-dasharray:20 22;stroke-dashoffset:21;animation:tqgCCwAP_draw 5ms ease-out 1077ms forwards;}.tqgCCwAP_65{stroke-dasharray:11 13;stroke-dashoffset:12;animation:tqgCCwAP_draw 2ms ease-out 1082ms forwards;}.tqgCCwAP_66{stroke-dasharray:19 21;stroke-dashoffset:20;animation:tqgCCwAP_draw 4ms ease-out 1085ms forwards;}.tqgCCwAP_67{stroke-dasharray:63 65;stroke-dashoffset:64;animation:tqgCCwAP_draw 15ms ease-out 1090ms forwards;}.tqgCCwAP_68{stroke-dasharray:10 12;stroke-dashoffset:11;animation:tqgCCwAP_draw 2ms ease-out 1106ms forwards;}.tqgCCwAP_69{stroke-dasharray:19 21;stroke-dashoffset:20;animation:tqgCCwAP_draw 4ms ease-out 1109ms forwards;}.tqgCCwAP_70{stroke-dasharray:112 114;stroke-dashoffset:113;animation:tqgCCwAP_draw 27ms ease-out 1113ms forwards;}.tqgCCwAP_71{stroke-dasharray:57 59;stroke-dashoffset:58;animation:tqgCCwAP_draw 14ms ease-out 1141ms forwards;}.tqgCCwAP_72{stroke-dasharray:46 48;stroke-dashoffset:47;animation:tqgCCwAP_draw 11ms ease-out 1155ms forwards;}.tqgCCwAP_73{stroke-dasharray:19 21;stroke-dashoffset:20;animation:tqgCCwAP_draw 4ms ease-out 1167ms forwards;}.tqgCCwAP_74{stroke-dasharray:4 6;stroke-dashoffset:5;animation:tqgCCwAP_draw 1ms ease-out 1172ms forwards;}.tqgCCwAP_75{stroke-dasharray:12 14;stroke-dashoffset:13;animation:tqgCCwAP_draw 3ms ease-out 1173ms forwards;}.tqgCCwAP_76{stroke-dasharray:21 23;stroke-dashoffset:22;animation:tqgCCwAP_draw 5ms ease-out 1176ms forwards;}.tqgCCwAP_77{stroke-dasharray:44 46;stroke-dashoffset:45;animation:tqgCCwAP_draw 11ms ease-out 1181ms forwards;}.tqgCCwAP_78{stroke-dasharray:27 29;stroke-dashoffset:28;animation:tqgCCwAP_draw 6ms ease-out 1193ms forwards;}.tqgCCwAP_79{stroke-dasharray:23 25;stroke-dashoffset:24;animation:tqgCCwAP_draw 5ms ease-out 1199ms forwards;}.tqgCCwAP_80{stroke-dasharray:16 18;stroke-dashoffset:17;animation:tqgCCwAP_draw 4ms ease-out 1205ms forwards;}.tqgCCwAP_81{stroke-dasharray:32 34;stroke-dashoffset:33;animation:tqgCCwAP_draw 8ms ease-out 1209ms forwards;}.tqgCCwAP_82{stroke-dasharray:183 185;stroke-dashoffset:184;animation:tqgCCwAP_draw 45ms ease-out 1217ms forwards;}.tqgCCwAP_83{stroke-dasharray:17 19;stroke-dashoffset:18;animation:tqgCCwAP_draw 4ms ease-out 1262ms forwards;}.tqgCCwAP_84{stroke-dasharray:53 55;stroke-dashoffset:54;animation:tqgCCwAP_draw 13ms ease-out 1267ms forwards;}.tqgCCwAP_85{stroke-dasharray:54 56;stroke-dashoffset:55;animation:tqgCCwAP_draw 13ms ease-out 1280ms forwards;}.tqgCCwAP_86{stroke-dasharray:97 99;stroke-dashoffset:98;animation:tqgCCwAP_draw 23ms ease-out 1294ms forwards;}.tqgCCwAP_87{stroke-dasharray:11 13;stroke-dashoffset:12;animation:tqgCCwAP_draw 2ms ease-out 1318ms forwards;}.tqgCCwAP_88{stroke-dasharray:9 11;stroke-dashoffset:10;animation:tqgCCwAP_draw 2ms ease-out 1320ms forwards;}.tqgCCwAP_89{stroke-dasharray:19 21;stroke-dashoffset:20;animation:tqgCCwAP_draw 4ms ease-out 1323ms forwards;}.tqgCCwAP_90{stroke-dasharray:9 11;stroke-dashoffset:10;animation:tqgCCwAP_draw 2ms ease-out 1328ms forwards;}.tqgCCwAP_91{stroke-dasharray:22 24;stroke-dashoffset:23;animation:tqgCCwAP_draw 5ms ease-out 1330ms forwards;}.tqgCCwAP_92{stroke-dasharray:24 26;stroke-dashoffset:25;animation:tqgCCwAP_draw 6ms ease-out 1336ms forwards;}.tqgCCwAP_93{stroke-dasharray:33 35;stroke-dashoffset:34;animation:tqgCCwAP_draw 8ms ease-out 1342ms forwards;}.tqgCCwAP_94{stroke-dasharray:17 19;stroke-dashoffset:18;animation:tqgCCwAP_draw 4ms ease-out 1350ms forwards;}.tqgCCwAP_95{stroke-dasharray:30 32;stroke-dashoffset:31;animation:tqgCCwAP_draw 7ms ease-out 1355ms forwards;}.tqgCCwAP_96{stroke-dasharray:34 36;stroke-dashoffset:35;animation:tqgCCwAP_draw 8ms ease-out 1362ms forwards;}.tqgCCwAP_97{stroke-dasharray:21 23;stroke-dashoffset:22;animation:tqgCCwAP_draw 5ms ease-out 1371ms forwards;}.tqgCCwAP_98{stroke-dasharray:17 19;stroke-dashoffset:18;animation:tqgCCwAP_draw 4ms ease-out 1376ms forwards;}.tqgCCwAP_99{stroke-dasharray:16 18;stroke-dashoffset:17;animation:tqgCCwAP_draw 4ms ease-out 1381ms forwards;}.tqgCCwAP_100{stroke-dasharray:19 21;stroke-dashoffset:20;animation:tqgCCwAP_draw 4ms ease-out 1385ms forwards;}.tqgCCwAP_101{stroke-dasharray:98 100;stroke-dashoffset:99;animation:tqgCCwAP_draw 24ms ease-out 1390ms forwards;}.tqgCCwAP_102{stroke-dasharray:61 63;stroke-dashoffset:62;animation:tqgCCwAP_draw 15ms ease-out 1414ms forwards;}.tqgCCwAP_103{stroke-dasharray:269 271;stroke-dashoffset:270;animation:tqgCCwAP_draw 66ms ease-out 1429ms forwards;}.tqgCCwAP_104{stroke-dasharray:85 87;stroke-dashoffset:86;animation:tqgCCwAP_draw 21ms ease-out 1495ms forwards;}.tqgCCwAP_105{stroke-dasharray:80 82;stroke-dashoffset:81;animation:tqgCCwAP_draw 19ms ease-out 1516ms forwards;}.tqgCCwAP_106{stroke-dasharray:20 22;stroke-dashoffset:21;animation:tqgCCwAP_draw 5ms ease-out 1536ms forwards;}.tqgCCwAP_107{stroke-dasharray:33 35;stroke-dashoffset:34;animation:tqgCCwAP_draw 8ms ease-out 1541ms forwards;}.tqgCCwAP_108{stroke-dasharray:34 36;stroke-dashoffset:35;animation:tqgCCwAP_draw 8ms ease-out 1549ms forwards;}.tqgCCwAP_109{stroke-dasharray:98 100;stroke-dashoffset:99;animation:tqgCCwAP_draw 24ms ease-out 1558ms forwards;}.tqgCCwAP_110{stroke-dasharray:49 51;stroke-dashoffset:50;animation:tqgCCwAP_draw 12ms ease-out 1582ms forwards;}.tqgCCwAP_111{stroke-dasharray:39 41;stroke-dashoffset:40;animation:tqgCCwAP_draw 9ms ease-out 1594ms forwards;}.tqgCCwAP_112{stroke-dasharray:102 104;stroke-dashoffset:103;animation:tqgCCwAP_draw 25ms ease-out 1604ms forwards;}.tqgCCwAP_113{stroke-dasharray:45 47;stroke-dashoffset:46;animation:tqgCCwAP_draw 11ms ease-out 1629ms forwards;}.tqgCCwAP_114{stroke-dasharray:14 16;stroke-dashoffset:15;animation:tqgCCwAP_draw 3ms ease-out 1641ms forwards;}.tqgCCwAP_115{stroke-dasharray:63 65;stroke-dashoffset:64;animation:tqgCCwAP_draw 15ms ease-out 1644ms forwards;}.tqgCCwAP_116{stroke-dasharray:1185 1187;stroke-dashoffset:1186;animation:tqgCCwAP_draw 290ms ease-out 1660ms forwards;}.tqgCCwAP_117{stroke-dasharray:537 539;stroke-dashoffset:538;animation:tqgCCwAP_draw 131ms ease-out 1950ms forwards;}.tqgCCwAP_118{stroke-dasharray:215 217;stroke-dashoffset:216;animation:tqgCCwAP_draw 52ms ease-out 2082ms forwards;}.tqgCCwAP_119{stroke-dasharray:215 217;stroke-dashoffset:216;animation:tqgCCwAP_draw 52ms ease-out 2135ms forwards;}.tqgCCwAP_120{stroke-dasharray:119 121;stroke-dashoffset:120;animation:tqgCCwAP_draw 29ms ease-out 2187ms forwards;}.tqgCCwAP_121{stroke-dasharray:38 40;stroke-dashoffset:39;animation:tqgCCwAP_draw 9ms ease-out 2217ms forwards;}.tqgCCwAP_122{stroke-dasharray:106 108;stroke-dashoffset:107;animation:tqgCCwAP_draw 26ms ease-out 2226ms forwards;}.tqgCCwAP_123{stroke-dasharray:75 77;stroke-dashoffset:76;animation:tqgCCwAP_draw 18ms ease-out 2252ms forwards;}.tqgCCwAP_124{stroke-dasharray:59 61;stroke-dashoffset:60;animation:tqgCCwAP_draw 14ms ease-out 2271ms forwards;}.tqgCCwAP_125{stroke-dasharray:260 262;stroke-dashoffset:261;animation:tqgCCwAP_draw 63ms ease-out 2286ms forwards;}.tqgCCwAP_126{stroke-dasharray:156 158;stroke-dashoffset:157;animation:tqgCCwAP_draw 38ms ease-out 2350ms forwards;}.tqgCCwAP_127{stroke-dasharray:82 84;stroke-dashoffset:83;animation:tqgCCwAP_draw 20ms ease-out 2388ms forwards;}.tqgCCwAP_128{stroke-dasharray:193 195;stroke-dashoffset:194;animation:tqgCCwAP_draw 47ms ease-out 2408ms forwards;}.tqgCCwAP_129{stroke-dasharray:94 96;stroke-dashoffset:95;animation:tqgCCwAP_draw 23ms ease-out 2456ms forwards;}.tqgCCwAP_130{stroke-dasharray:407 409;stroke-dashoffset:408;animation:tqgCCwAP_draw 99ms ease-out 2479ms forwards;}.tqgCCwAP_131{stroke-dasharray:82 84;stroke-dashoffset:83;animation:tqgCCwAP_draw 20ms ease-out 2579ms forwards;}.tqgCCwAP_132{stroke-dasharray:72 74;stroke-dashoffset:73;animation:tqgCCwAP_draw 17ms ease-out 2599ms forwards;}.tqgCCwAP_133{stroke-dasharray:80 82;stroke-dashoffset:81;animation:tqgCCwAP_draw 19ms ease-out 2617ms forwards;}.tqgCCwAP_134{stroke-dasharray:23 25;stroke-dashoffset:24;animation:tqgCCwAP_draw 5ms ease-out 2637ms forwards;}.tqgCCwAP_135{stroke-dasharray:25 27;stroke-dashoffset:26;animation:tqgCCwAP_draw 6ms ease-out 2643ms forwards;}.tqgCCwAP_136{stroke-dasharray:61 63;stroke-dashoffset:62;animation:tqgCCwAP_draw 15ms ease-out 2649ms forwards;}.tqgCCwAP_137{stroke-dasharray:41 43;stroke-dashoffset:42;animation:tqgCCwAP_draw 10ms ease-out 2664ms forwards;}.tqgCCwAP_138{stroke-dasharray:23 25;stroke-dashoffset:24;animation:tqgCCwAP_draw 5ms ease-out 2674ms forwards;}.tqgCCwAP_139{stroke-dasharray:91 93;stroke-dashoffset:92;animation:tqgCCwAP_draw 22ms ease-out 2680ms forwards;}.tqgCCwAP_140{stroke-dasharray:126 128;stroke-dashoffset:127;animation:tqgCCwAP_draw 31ms ease-out 2703ms forwards;}.tqgCCwAP_141{stroke-dasharray:47 49;stroke-dashoffset:48;animation:tqgCCwAP_draw 11ms ease-out 2734ms forwards;}.tqgCCwAP_142{stroke-dasharray:35 37;stroke-dashoffset:36;animation:tqgCCwAP_draw 8ms ease-out 2746ms forwards;}.tqgCCwAP_143{stroke-dasharray:47 49;stroke-dashoffset:48;animation:tqgCCwAP_draw 11ms ease-out 2754ms forwards;}.tqgCCwAP_144{stroke-dasharray:75 77;stroke-dashoffset:76;animation:tqgCCwAP_draw 18ms ease-out 2766ms forwards;}.tqgCCwAP_145{stroke-dasharray:51 53;stroke-dashoffset:52;animation:tqgCCwAP_draw 12ms ease-out 2785ms forwards;}.tqgCCwAP_146{stroke-dasharray:38 40;stroke-dashoffset:39;animation:tqgCCwAP_draw 9ms ease-out 2797ms forwards;}.tqgCCwAP_147{stroke-dasharray:69 71;stroke-dashoffset:70;animation:tqgCCwAP_draw 17ms ease-out 2807ms forwards;}.tqgCCwAP_148{stroke-dasharray:21 23;stroke-dashoffset:22;animation:tqgCCwAP_draw 5ms ease-out 2824ms forwards;}.tqgCCwAP_149{stroke-dasharray:24 26;stroke-dashoffset:25;animation:tqgCCwAP_draw 6ms ease-out 2829ms forwards;}.tqgCCwAP_150{stroke-dasharray:23 25;stroke-dashoffset:24;animation:tqgCCwAP_draw 5ms ease-out 2836ms forwards;}.tqgCCwAP_151{stroke-dasharray:22 24;stroke-dashoffset:23;animation:tqgCCwAP_draw 5ms ease-out 2841ms forwards;}.tqgCCwAP_152{stroke-dasharray:22 24;stroke-dashoffset:23;animation:tqgCCwAP_draw 5ms ease-out 2847ms forwards;}.tqgCCwAP_153{stroke-dasharray:17 19;stroke-dashoffset:18;animation:tqgCCwAP_draw 4ms ease-out 2853ms forwards;}.tqgCCwAP_154{stroke-dasharray:40 42;stroke-dashoffset:41;animation:tqgCCwAP_draw 10ms ease-out 2857ms forwards;}.tqgCCwAP_155{stroke-dasharray:34 36;stroke-dashoffset:35;animation:tqgCCwAP_draw 8ms ease-out 2867ms forwards;}.tqgCCwAP_156{stroke-dasharray:72 74;stroke-dashoffset:73;animation:tqgCCwAP_draw 17ms ease-out 2876ms forwards;}.tqgCCwAP_157{stroke-dasharray:22 24;stroke-dashoffset:23;animation:tqgCCwAP_draw 5ms ease-out 2894ms forwards;}.tqgCCwAP_158{stroke-dasharray:43 45;stroke-dashoffset:44;animation:tqgCCwAP_draw 10ms ease-out 2899ms forwards;}.tqgCCwAP_159{stroke-dasharray:95 97;stroke-dashoffset:96;animation:tqgCCwAP_draw 23ms ease-out 2910ms forwards;}.tqgCCwAP_160{stroke-dasharray:29 31;stroke-dashoffset:30;animation:tqgCCwAP_draw 7ms ease-out 2933ms forwards;}.tqgCCwAP_161{stroke-dasharray:16 18;stroke-dashoffset:17;animation:tqgCCwAP_draw 4ms ease-out 2941ms forwards;}.tqgCCwAP_162{stroke-dasharray:19 21;stroke-dashoffset:20;animation:tqgCCwAP_draw 4ms ease-out 2945ms forwards;}.tqgCCwAP_163{stroke-dasharray:34 36;stroke-dashoffset:35;animation:tqgCCwAP_draw 8ms ease-out 2950ms forwards;}.tqgCCwAP_164{stroke-dasharray:21 23;stroke-dashoffset:22;animation:tqgCCwAP_draw 5ms ease-out 2958ms forwards;}.tqgCCwAP_165{stroke-dasharray:19 21;stroke-dashoffset:20;animation:tqgCCwAP_draw 4ms ease-out 2964ms forwards;}.tqgCCwAP_166{stroke-dasharray:59 61;stroke-dashoffset:60;animation:tqgCCwAP_draw 14ms ease-out 2969ms forwards;}.tqgCCwAP_167{stroke-dasharray:20 22;stroke-dashoffset:21;animation:tqgCCwAP_draw 5ms ease-out 2983ms forwards;}.tqgCCwAP_168{stroke-dasharray:13 15;stroke-dashoffset:14;animation:tqgCCwAP_draw 3ms ease-out 2988ms forwards;}.tqgCCwAP_169{stroke-dasharray:30 32;stroke-dashoffset:31;animation:tqgCCwAP_draw 7ms ease-out 2992ms forwards;}@keyframes tqgCCwAP_draw{100%{stroke-dashoffset:0;}}@keyframes tqgCCwAP_fade{0%{stroke-opacity:1;}94.44444444444444%{stroke-opacity:1;}100%{stroke-opacity:0;}}</style></svg>
